<?xml version="1.0" encoding="UTF-8" standalone="no"?>
<!-- Created with Inkscape (http://www.inkscape.org/) -->

<svg
   width="67.733337mm"
   height="67.733337mm"
   viewBox="0 0 67.733338 67.733338"
   version="1.1"
   id="svg10390"
   xmlns="http://www.w3.org/2000/svg"
   xmlns:svg="http://www.w3.org/2000/svg">
  <defs
     id="defs10387" />
  <g
     id="layer1"
     transform="translate(361.34702,-38.187649)">
    <g
       id="g90"
       transform="matrix(0.50000001,0,0,0.50000001,-180.67351,19.093824)">
      <path
         id="path40952"
         style="color:#000000;fill:#03256C;fill-opacity:1;stroke-width:3.94042;stroke-linecap:round;stroke-linejoin:round;-inkscape-stroke:none;paint-order:normal"
         d="M 255.99609,0 C 114.80462,0 0,114.81429 0,256.00586 0,397.19722 114.80462,512 255.99609,512 397.18756,512 512,397.19722 512,256.00586 512,114.81429 397.18756,0 255.99609,0 Z m 0,32.708984 c 123.51621,0 223.30079,99.780676 223.30079,223.296876 0,123.51613 -99.78458,223.29297 -223.30079,223.29297 -123.51613,0 -223.294918,-99.77684 -223.294918,-223.29297 0,-123.5162 99.778788,-223.296876 223.294918,-223.296876 z"
         transform="matrix(0.26458333,0,0,0.26458333,-361.34702,38.187649)" />
      <rect
         style="fill:none;fill-opacity:1;stroke:none;stroke-width:1.79206;stroke-linecap:round;stroke-linejoin:round;stroke-dasharray:5.37621, 5.37621"
         id="rect40928"
         width="135.46666"
         height="135.46666"
         x="-361.34702"
         y="38.187649"
         ry="0.67312318" />
      <path
         style="color:#000000;fill:#03256C;fill-opacity:1;stroke-width:1.04257;stroke-linecap:round;stroke-linejoin:round;-inkscape-stroke:none;paint-order:normal"
         d="m -334.72028,100.31867 c -1.83646,0.0722 -3.25304,1.44067 -3.34733,3.78321 -0.0241,0.5984 -0.0355,1.19959 -0.0355,1.80375 0,24.52007 19.97028,44.49037 44.49037,44.49037 8.77443,0 16.96461,-2.55866 23.86658,-6.96725 2.81826,-1.80015 2.52117,-4.95398 -0.37713,-6.62731 -1.53339,-0.8853 -3.94247,-0.75984 -5.47327,0.12872 -5.2885,3.06994 -11.44073,4.82622 -18.01618,4.82622 -19.85024,0 -35.8508,-16.00055 -35.8508,-35.8508 0,-0.0554 2.8e-4,-0.11059 5.4e-4,-0.16592 0.008,-1.7206 -1.05889,-3.80946 -2.54942,-4.66999 l -0.0281,-0.0155 c -0.92362,-0.53325 -1.84506,-0.76821 -2.67979,-0.73541 z"
         id="path156" />
      <path
         style="color:#000000;fill:#03256C;fill-opacity:1;stroke-width:1.04257;stroke-linecap:round;stroke-linejoin:round;-inkscape-stroke:none;paint-order:normal"
         d="m -293.6144,87.733768 a 18.187902,18.187902 0 0 0 -18.18751,18.188022 18.187902,18.187902 0 0 0 18.18751,18.18752 18.187902,18.187902 0 0 0 18.18803,-18.18752 18.187902,18.187902 0 0 0 -18.18803,-18.188022 z"
         id="path154" />
      <path
         style="color:#000000;fill:#03256C;fill-opacity:1;stroke-width:1.04257;stroke-linecap:round;stroke-linejoin:round;-inkscape-stroke:none;paint-order:normal"
         d="m -293.6135,61.417412 c -5.65666,0 -11.06654,1.07174 -16.04915,3.008452 a 9.7900915,9.7900915 0 0 0 -5.96895,-2.03113 9.7900915,9.7900915 0 0 0 -9.78984,9.790373 9.7900915,9.7900915 0 0 0 9.78984,9.789824 9.7900915,9.7900915 0 0 0 9.7893,-9.762348 c 3.81661,-1.379836 7.92647,-2.155042 12.2288,-2.155042 19.85024,0 35.84811,15.997838 35.84811,35.848089 0,0.0218 3e-5,0.0437 0,0.0652 -0.002,1.63787 1.02283,3.62673 2.44167,4.44587 3.05426,1.76335 6.07328,0.36761 6.18012,-3.15444 0.014,-0.45062 0.0205,-0.90276 0.0205,-1.35661 0,-24.520075 -19.97032,-44.488215 -44.49039,-44.488215 z"
         id="path152" />
    </g>
  </g>
   <animateTransform
      attributeName="transform"
      type="rotate"
      from="360 0 0"
      to="0 0 0"
      dur="20s"
      repeatCount="indefinite" />
</svg>
